<svg xmlns="http://www.w3.org/2000/svg" xmlns:xlink="http://www.w3.org/1999/xlink" viewBox="0 0 101 39" fill="#fff" fill-rule="evenodd" stroke="#000" stroke-linecap="round" stroke-linejoin="round" width="300" height="300" font-family="Roboto" font-size="14px" text-anchor="middle"><defs><style type="text/css"></style></defs><use xlink:href="#A" x=".5" y=".5"></use><symbol id="A" overflow="visible"><g stroke="none"><path d="M11.883 5.93l.073.64 9.625.266.01-.157v.003l.017-.28.015-.28.007-.14-3.4-1.97a3.02 3.02 0 0 0-3.015 0zm.672 4.206l8.67.282.018-.132-.001.004.015-.108.027-.2.02-.163.022-.164.028-.225.027-.227.074-.707.063-.743-9.36.258.398 2.132zm1.04 3.533l7.018.263.175-.85.086-.477.015-.08.015-.084.058-.34.036-.235.037-.2.054-.33-8.18.266.258.877.424 1.203zm4.403 4.282a1.73 1.73 0 0 0 .508-.204c.126-.074.243-.16.354-.256.13-.112.25-.236.36-.37l.083-.105.05-.067.076-.105c.082-.117.157-.238.227-.363l.02-.035.022-.036.252-.475.138-.316.06-.15.096-.256.128-.392-6.142.23.297.515c.193.3.405.608.645.883.33.38.72.72 1.18.934.13.06.264.112.402.15l.13.033.125.027.08.02.237.066c.155.048.308.104.457.17l.215.1zm-5.64 8.047L20.4 25.7l-.262-.9-.478-1.356-6.8-.295-.035.147-.177.88-.092.523-.024.13-.044.26-.054.35-.033.2-.055.346zm-.43 3.576l9.248-.284-.38-1.97-.033-.148-8.534-.304-.1.84-.192 1.866zm-2.148.924l.052-.6.016-.15.016-.14.064-.543.178-1.28.078-.482.013-.076.25-1.206.04-.16.134-.506.054-.195.03-.105.243-.72.017-.048.28-.695.01-.02.38-.78.244-.455.02-.036.445-.695.174-.247.073-.1a8.36 8.36 0 0 1 .699-.806l.036-.034.033-.03.163-.142.24-.194.07-.05.1-.062.3-.194.207-.1.26-.114c.12-.048.245-.088.37-.118.087-.022.176-.038.265-.047.056-.006.112-.01.168-.006h.003l.013.014-.014.012-.027.001-.047.005a1.57 1.57 0 0 0-.502.17c-.136.072-.26.16-.378.26l-.14.125c-.088.085-.17.175-.246.27l-.08.107-.026.036-.098.137-.202.332-.02.035-.02.036-.187.35-.195.445-.04.103-.095.256-.085.256 5.895-.256c-.148-.277-.31-.546-.49-.806-.17-.246-.354-.482-.56-.7-.282-.298-.607-.564-.98-.736-.107-.05-.218-.1-.332-.122l-.222-.05-.08-.02-.28-.077c-.17-.053-.337-.115-.5-.187a4.85 4.85 0 0 1-.471-.239l-.342-.215c-.704-.482-1.285-1.126-1.766-1.827l-.205-.312-.28-.467-.336-.637-.374-.822-.436-1.14-.467-1.508-.48-2.007-.438-2.55L9.9 7.09l-5.253 3.033a3.01 3.01 0 0 0-1.507 2.6V24.93a3.01 3.01 0 0 0 1.507 2.61zm13.724.08l5.28-3.048a3.01 3.01 0 0 0 1.507-2.6v-12.2a3.01 3.01 0 0 0-1.507-2.61l-5.148-2.972-.025.293-.36 2.676-.032.172-.158.767-.06.265-.038.15-.053.202-.162.583-.01.03-.264.768-.035.1-.066.166-.235.56-.036.075-.14.288-.282.54-.14.25-.012.022-.455.695-.175.243-.072.096c-.218.28-.454.546-.705.797l-.037.034-.1.088-.318.26-.03.023c-.206.15-.423.284-.648.402l-.17.082-.282.114c-.1.04-.224.072-.34.097l-.142.025.126.068.275.165c.7.455 1.278 1.08 1.756 1.76l.23.345.282.468.34.642.382.832.45 1.16.5 1.632.523 2.156.482 2.715.092.657zM11.8 31.657l3.414 1.97a3.01 3.01 0 0 0 3.015 0l3.3-1.906-.124-.98-9.534-.292-.072 1.205zM23.313 3.333l8.603 4.976a3.01 3.01 0 0 1 1.508 2.6v15.816a3.01 3.01 0 0 1-1.508 2.62L18.22 37.253a3.01 3.01 0 0 1-3.015 0L1.508 29.35C.575 28.81 0 27.815 0 26.75V10.92a3.01 3.01 0 0 1 1.508-2.61L15.205.403a3.02 3.02 0 0 1 3.015 0l4.9 2.83.056.013.138.1z" fill="#db0a5b"></path><path d="M44.548 23.602c.013.117-.026.2-.117.215a2.43 2.43 0 0 1-.586.127l-.547.03c-.573 0-.954-.146-1.142-.44s-.283-.706-.283-1.24V9.73c0-.117.06-.175.176-.175h.566c.13 0 .195.06.195.175V21.99c0 .416.05.712.146.888s.316.264.654.264a3.31 3.31 0 0 0 .371-.02c.117-.013.228-.032.332-.06.036 0 .072.003.107.01s.055.042.068.107zm8.942-4.9c.001-.573-.05-1.145-.156-1.708-.104-.553-.3-1.038-.557-1.455s-.622-.752-1.064-1.006-1.002-.38-1.68-.38c-.625 0-1.155.124-1.6.37a2.97 2.97 0 0 0-1.054.996 4.52 4.52 0 0 0-.586 1.435c-.124.54-.186 1.103-.186 1.7 0 .65.06 1.256.176 1.816s.312 1.048.586 1.465a2.89 2.89 0 0 0 1.064.976c.436.234.973.352 1.6.352.664 0 1.217-.137 1.66-.4a3.11 3.11 0 0 0 1.054-1.064 4.67 4.67 0 0 0 .557-1.464 8.03 8.03 0 0 0 .166-1.611m.918-.06c0 1.77-.384 3.114-1.152 4.032s-1.848 1.377-3.24 1.377c-1.38 0-2.444-.46-3.192-1.377S45.7 20.444 45.7 18.713c0-1.744.397-3.072 1.2-3.983s1.855-1.367 3.183-1.367c1.393 0 2.463.46 3.212 1.377s1.123 2.223 1.123 3.915m6.15 4.57l.566-.03c.234-.02.488-.055.762-.107l.85-.185c.285-.07.563-.164.83-.283v-7.98a6.87 6.87 0 0 0-1.542-.371l-1.367-.098a3.55 3.55 0 0 0-1.406.273c-.43.183-.8.46-1.113.83s-.56.846-.742 1.425-.273 1.266-.273 2.06c0 1.458.306 2.565.918 3.32s1.45 1.133 2.52 1.133m.098-9.86c.547 0 1.14.04 1.777.117.65.08 1.286.245 1.894.488.117.052.176.143.176.274v9c0 .872-.1 1.598-.332 2.177s-.537 1.05-.947 1.415a4.25 4.25 0 0 1-1.474.84 10.76 10.76 0 0 1-1.913.45c-.13.013-.202-.026-.215-.117l-.078-.566c0-.1.052-.143.156-.156l1.552-.37a3.76 3.76 0 0 0 1.23-.615 2.63 2.63 0 0 0 .801-1.044c.2-.43.283-.983.283-1.66v-.137l-.703.225c-.26.072-.53.13-.8.175l-.83.117a6.38 6.38 0 0 1-.762.05c-.755 0-1.403-.13-1.942-.4s-.986-.625-1.338-1.093-.6-1.022-.77-1.66c-.167-.677-.25-1.372-.244-2.07a8.36 8.36 0 0 1 .264-2.148 4.99 4.99 0 0 1 .81-1.728 3.84 3.84 0 0 1 1.396-1.152c.566-.28 1.24-.42 2.02-.42m9.342 5.536c0 1.04.205 1.77.615 2.187s.98.625 1.708.625a5.95 5.95 0 0 0 .732-.06c.306-.04.563-.098.77-.176v-5.447c-.296-.07-.596-.123-.898-.156l-.703-.04c-.664 0-1.2.24-1.6.722s-.615 1.263-.615 2.343m-2.948-.04c0-.73.1-1.425.273-2.1s.462-1.246.84-1.747.866-.898 1.464-1.2 1.308-.44 2.128-.44l.986.04c.32.026.68.085 1.084.176v-3.573c0-.156.03-.26.088-.312s.172-.078.342-.078h1.992c.143 0 .25.023.322.068s.107.153.107.322V22.49a2.45 2.45 0 0 1-.039.439c-.013.143-.1.273-.293.4s-.414.218-.693.303-.592.16-.937.224l-1.025.147-.957.078-.742.03c-.937 0-1.72-.13-2.353-.4s-1.14-.625-1.523-1.093-.657-1.022-.82-1.66c-.17-.7-.25-1.4-.244-2.11m16.343-3.124l-.557.01c-.24.007-.498.036-.77.088v7.712c0 .143-.023.238-.07.283s-.16.068-.342.068h-2c-.143 0-.247-.023-.312-.068s-.098-.14-.098-.283v-8.376c0-.443.078-.8.234-1.044s.482-.433.976-.537c.184-.033.37-.055.556-.068l.77-.06.8-.05.693-.02c.9 0 1.7.1 2.363.273s1.214.472 1.65.87.76.918.976 1.562.322 1.428.322 2.353v5.096c0 .143-.023.238-.07.283s-.16.068-.342.068h-2.03c-.143 0-.247-.023-.312-.068s-.098-.14-.098-.283V18.26c.006-.374-.03-.747-.107-1.113-.072-.312-.195-.576-.37-.8s-.416-.374-.722-.478-.687-.156-1.142-.156m13.6 3.514h-1.542c-.196.001-.392.014-.586.04-.208.026-.4.088-.576.186a1.23 1.23 0 0 0-.439.42c-.117.182-.176.43-.176.742 0 .456.153.775.46.957s.72.273 1.24.273l.312-.01.42-.04.46-.078a2.57 2.57 0 0 0 .43-.127zm2.85 3.378c0 .17-.023.313-.07.43s-.16.228-.342.332a5.47 5.47 0 0 1-.966.352 9.69 9.69 0 0 1-1.054.215l-1.084.117-1.035.04c-.885 0-1.617-.084-2.197-.254s-1.044-.4-1.396-.693a2.38 2.38 0 0 1-.742-1.035 3.77 3.77 0 0 1-.215-1.28c0-.508.085-.973.254-1.396s.423-.8.76-1.103.765-.556 1.28-.732 1.123-.264 1.826-.264h2.148v-.312c0-.182-.02-.358-.06-.527s-.12-.316-.244-.44-.296-.224-.517-.303-.514-.117-.88-.117l-.664.03-.742.078-.722.117-.625.146c-.17.04-.286.04-.35 0s-.1-.124-.137-.254l-.312-1.367c-.04-.143-.042-.244-.01-.303s.1-.107.205-.146c.598-.21 1.217-.362 1.845-.45.637-.09 1.28-.136 1.923-.137 1.42 0 2.46.303 3.124.908s.996 1.5.996 2.685z" fill="#383838"></path></g></symbol></svg>