<svg xmlns="http://www.w3.org/2000/svg" width="642" height="641.915" viewBox="0 0 642 641.915">
  <g id="logging_lineart" transform="translate(1541 -19.042)">
    <g id="Group_371">
      <path id="Path_1666" d="M-1220,660.957a92.134,92.134,0,0,1-65.349-27.025l-228.583-228.583A91.811,91.811,0,0,1-1541,340a91.812,91.812,0,0,1,27.068-65.349l228.583-228.583a92.523,92.523,0,0,1,130.7,0l228.583,228.583A91.812,91.812,0,0,1-899,340a91.812,91.812,0,0,1-27.068,65.349l-228.583,228.583A92.134,92.134,0,0,1-1220,660.957Zm-63.935-28.439a90.521,90.521,0,0,0,127.87,0l228.583-228.583a90.522,90.522,0,0,0,0-127.87L-1156.065,47.482a90.522,90.522,0,0,0-127.87,0l-228.583,228.583A89.829,89.829,0,0,0-1539,340a89.829,89.829,0,0,0,26.482,63.935Z" fill="#476db8"/>
      <path id="Path_1667" d="M-1220,603.19a46.562,46.562,0,0,1-33.028-13.658l-216.5-216.5A46.4,46.4,0,0,1-1483.212,340a46.4,46.4,0,0,1,13.68-33.028l216.5-216.5a46.763,46.763,0,0,1,66.056,0l216.5,216.5a46.763,46.763,0,0,1,0,66.056l-216.5,216.5A46.56,46.56,0,0,1-1220,603.19Zm-31.614-15.072a44.759,44.759,0,0,0,63.228,0l216.5-216.5a44.761,44.761,0,0,0,0-63.228l-216.5-216.5a44.761,44.761,0,0,0-63.228,0l-216.5,216.5a44.418,44.418,0,0,0-13.1,31.61,44.417,44.417,0,0,0,13.094,31.614Z" fill="#476db8"/>
      <path id="Path_1668" d="M-1159.555,309.159H-1280.4V279.733h120.842Zm-118.842-2h116.842V281.733H-1278.4Z" fill="#476db8"/>
      <path id="Path_1669" d="M-1159.555,354.867H-1280.4V325.442h120.842Zm-118.842-2h116.842V327.442H-1278.4Z" fill="#476db8"/>
      <path id="Path_1670" d="M-1159.555,400.576H-1280.4V371.151h120.842Zm-118.842-2h116.842V373.151H-1278.4Z" fill="#476db8"/>
      <path id="Path_1671" d="M-1117.788,450.689l-27.268-27.267L-1062,340.36l-83.057-83.061,27.268-27.268,96.7,96.7a19.146,19.146,0,0,1,5.65,13.633,19.145,19.145,0,0,1-5.65,13.634Zm-24.44-27.267,24.44,24.439,95.281-95.281a17.165,17.165,0,0,0,5.064-12.22,17.163,17.163,0,0,0-5.064-12.219l-95.281-95.282-24.44,24.44,83.057,83.061Z" fill="#476db8"/>
      <path id="Path_1672" d="M-1322.209,450.689l-96.7-96.7a19.147,19.147,0,0,1-5.65-13.634,19.147,19.147,0,0,1,5.65-13.633l96.7-96.7,27.268,27.268L-1378,340.36l83.057,83.062Zm0-217.83-95.281,95.282a17.164,17.164,0,0,0-5.064,12.219,17.166,17.166,0,0,0,5.064,12.22l95.281,95.281,24.439-24.439-83.056-83.062,83.056-83.061Z" fill="#476db8"/>
    </g>
    <g id="Group_372">
      <path id="Path_1673" d="M-1179.411,100.909l-9.735-9.734,39.827-39.827,9.735,9.735Zm-6.8-9.734,6.8,6.8,36.893-36.893-6.8-6.8Z" fill="#476db8"/>
      <path id="Path_1674" d="M-1260.588,100.909l-39.827-39.826,9.734-9.735,39.827,39.827Zm-36.894-39.826,36.894,36.893,6.8-6.8-36.894-36.894Z" fill="#476db8"/>
      <path id="Path_1675" d="M-1149.319,628.652l-39.827-39.827,9.735-9.734,39.827,39.826Zm-36.893-39.827,36.893,36.894,6.8-6.8-36.893-36.893Z" fill="#476db8"/>
      <path id="Path_1676" d="M-1290.681,628.652l-9.734-9.735,39.827-39.826,9.734,9.734Zm-6.8-9.735,6.8,6.8,36.894-36.894-6.8-6.8Z" fill="#476db8"/>
      <path id="Path_1677" d="M-1468.825,309.146l-39.826-39.827,9.734-9.735,39.826,39.827Zm-36.894-39.827,36.894,36.893,6.8-6.8-36.894-36.893Z" fill="#476db8"/>
      <path id="Path_1678" d="M-1498.917,420.416l-9.734-9.735,39.826-39.827,9.734,9.735Zm-6.8-9.735,6.8,6.8,36.894-36.893-6.8-6.8Z" fill="#476db8"/>
      <path id="Path_1679" d="M-971.175,309.146l-9.734-9.735,39.826-39.827,9.735,9.735Zm-6.8-9.735,6.8,6.8,36.894-36.893-6.8-6.8Z" fill="#476db8"/>
      <path id="Path_1680" d="M-941.083,420.416l-39.826-39.827,9.734-9.735,39.827,39.827Zm-36.893-39.827,36.893,36.893,6.8-6.8-36.894-36.893Z" fill="#476db8"/>
    </g>
    <path id="Rectangle_248" d="M0,0H1.787V282.8H0Z" transform="translate(-1160.744 80.775) rotate(-45)" fill="#476db8"/>
    <path id="Rectangle_249" d="M0,0H282.8V1.787H0Z" transform="translate(-1160.744 599.225) rotate(-45)" fill="#476db8"/>
    <path id="Rectangle_250" d="M0,0H1.787V282.8H0Z" transform="translate(-1480.488 400.52) rotate(-45)" fill="#476db8"/>
    <path id="Rectangle_251" d="M0,0H282.8V1.787H0Z" transform="translate(-1480.488 279.48) rotate(-45)" fill="#476db8"/>
    <path id="Rectangle_252" d="M0,0H2V36.566H0Z" transform="translate(-1406.139 314.978) rotate(-45)" fill="#476db8"/>
    <path id="Rectangle_253" d="M0,0H36.566V2H0Z" transform="translate(-1405.975 365.508) rotate(-45)" fill="#476db8"/>
    <path id="Rectangle_254" d="M0,0H36.566V2H0Z" transform="translate(-1061.293 339.653) rotate(-45)" fill="#476db8"/>
    <path id="Rectangle_255" d="M0,0H2V36.566H0Z" transform="translate(-1061.434 340.899) rotate(-45)" fill="#476db8"/>
    <path id="Path_1681" d="M-1220,66.938l-13.988-8.075V42.711L-1220,34.635l13.988,8.076V58.863Zm-11.988-9.229L-1220,64.63l11.988-6.921V43.865L-1220,36.943l-11.988,6.922Z" fill="#476db8"/>
    <path id="Path_1682" d="M-1220,645.364l-13.988-8.076V621.137l13.988-8.076,13.988,8.076v16.151Zm-11.988-9.23,11.988,6.922,11.988-6.922V622.291L-1220,615.369l-11.988,6.922Z" fill="#476db8"/>
    <path id="Path_1683" d="M-1501.137,353.988h-16.152L-1525.365,340l8.076-13.988h16.152L-1493.06,340Zm-15-2h13.843L-1495.37,340l-6.921-11.988h-13.843L-1523.056,340Z" fill="#476db8"/>
    <path id="Path_1684" d="M-922.711,353.988h-16.152L-946.939,340l8.076-13.988h16.152L-914.636,340Zm-15-2h13.844L-916.944,340l-6.921-11.988h-13.844L-944.631,340Z" fill="#476db8"/>
  </g>
</svg>
