<svg xmlns="http://www.w3.org/2000/svg" xmlns:xlink="http://www.w3.org/1999/xlink" width="1711.547" height="1711.545" viewBox="0 0 1711.547 1711.545">
  <defs>
    <linearGradient id="linear-gradient" x1="0.472" y1="1" x2="0.472" gradientUnits="objectBoundingBox">
      <stop offset="0" stop-color="#787878"/>
      <stop offset="1" stop-color="#f0f0f0"/>
    </linearGradient>
    <radialGradient id="radial-gradient" cx="0.5" cy="0.447" r="0.553" gradientUnits="objectBoundingBox">
      <stop offset="0" stop-color="#8c8c8c"/>
      <stop offset="0.429" stop-color="#9cbdcc"/>
      <stop offset="0.524" stop-color="#8c8c8c"/>
      <stop offset="0.714" stop-color="#fff"/>
      <stop offset="0.895" stop-color="#8c8c8c"/>
      <stop offset="1" stop-color="#9cbdcc"/>
    </radialGradient>
  </defs>
  <g id="layer1" transform="translate(224.922 87.619)">
    <path id="path4265" d="M292.808,166.4A248.748,248.748,0,0,0,50,415.622v623.064a248.681,248.681,0,0,0,249.226,249.226H922.29a248.68,248.68,0,0,0,249.226-249.226V415.622A248.68,248.68,0,0,0,922.29,166.4H299.226c-2.157,0-4.281-.054-6.425,0ZM307.9,182.07H913.642a241.727,241.727,0,0,1,242.313,242.216V1030.03a241.809,241.809,0,0,1-242.313,242.313H307.9A241.821,241.821,0,0,1,65.589,1030V424.258A241.727,241.727,0,0,1,307.9,182.042Z" transform="translate(-322.947 678.099) rotate(-45)" opacity="0.8"/>
    <path id="rect4218" d="M292.808,162.4A248.748,248.748,0,0,0,50,411.622v623.064a248.681,248.681,0,0,0,249.226,249.226H922.29a248.68,248.68,0,0,0,249.226-249.226V411.622A248.681,248.681,0,0,0,922.29,162.4H299.226c-2.157,0-4.281-.054-6.425,0ZM307.9,178.07H913.642a241.727,241.727,0,0,1,242.313,242.216V1026.03a241.809,241.809,0,0,1-242.313,242.313H307.9A241.821,241.821,0,0,1,65.589,1026V420.258A241.727,241.727,0,0,1,307.9,178.042Z" transform="translate(-328.93 672.116) rotate(-45)" stroke="#b4b4b4" stroke-linecap="round" stroke-linejoin="round" stroke-width="2" fill="url(#linear-gradient)"/>
    <path id="path4251" d="M631.911,168.38C305.021,168.38,40,433.388,40,760.291S305.008,1352.2,631.911,1352.2s591.911-265.008,591.911-591.911S958.814,168.38,631.911,168.38Zm0,249.226c189.259,0,342.686,153.427,342.686,342.686S821.17,1102.977,631.911,1102.977,289.226,949.55,289.226,760.291,442.652,417.606,631.911,417.606Z" transform="translate(-334.901 696.059) rotate(-45)" opacity="0.6"/>
    <path id="path2987" d="M631.911,152.38C305.021,152.38,40,417.388,40,744.291S305.008,1336.2,631.911,1336.2s591.911-265.008,591.911-591.911S958.814,152.38,631.911,152.38Zm0,249.226c189.259,0,342.686,153.427,342.686,342.685S821.17,1086.977,631.911,1086.977,289.226,933.55,289.226,744.291,442.652,401.606,631.911,401.606Z" transform="translate(-358.833 672.127) rotate(-45)" stroke="#a0a0a0" stroke-width="3" fill="url(#radial-gradient)"/>
    <path id="path3772" d="M631.907,152.381a591.249,591.249,0,0,0-187.212,30.18l78.849,236.546a343.754,343.754,0,0,1,216.708,0l78.855-236.571a591.294,591.294,0,0,0-187.2-30.156ZM70.183,557.062a595.8,595.8,0,0,0,0,374.443l236.571-78.855a343.6,343.6,0,0,1-.016-216.7L70.166,557.089Zm1123.448,0L957.06,635.917a343.754,343.754,0,0,1,0,216.708l236.571,78.855a595.543,595.543,0,0,0,.008-374.381ZM523.556,1069.439,444.7,1306.01a595.752,595.752,0,0,0,374.424,0l-78.88-236.578a343.752,343.752,0,0,1-216.708,0Z" transform="translate(-358.831 672.123) rotate(-45)" fill="#40408b" stroke="#40408b" stroke-linecap="round" stroke-linejoin="round" stroke-width="3"/>
    <g id="g3052" transform="translate(355.055 476.154)">
      <path id="path3055" d="M290.913,184.8a37.006,37.006,0,0,0-14.089,3.565L84.571,280.225A36.521,36.521,0,0,0,64.68,304.961L17.25,511.3a36.214,36.214,0,0,0,4.991,27.956q.973,1.5,2.09,2.9L157.4,707.612a36.877,36.877,0,0,0,28.743,13.72l213.4-.049a36.878,36.878,0,0,0,28.743-13.7l133.02-165.476a36.235,36.235,0,0,0,7.106-30.858l-47.5-206.341a36.521,36.521,0,0,0-19.892-24.735L308.739,188.365a37.023,37.023,0,0,0-17.826-3.565Z" transform="translate(-16.326 -184.752)" fill="#3f428b" stroke="#fff" stroke-width="1"/>
      <path id="path3059" d="M312.813,274.06c-6.355,0-11.508,5.725-11.507,12.786,0,.108.022.212.025.32-.009.959-.056,2.115-.025,2.951.152,4.073,1.039,7.19,1.574,10.941.968,8.031,1.779,14.688,1.279,20.875a12.555,12.555,0,0,1-3.737,5.95l-.27,4.868a149.763,149.763,0,0,0-20.8,3.2,148.02,148.02,0,0,0-75.19,42.955c-1.271-.867-3.494-2.462-4.155-2.951-2.055.278-4.131.911-6.835-.664-5.15-3.467-9.84-8.251-15.515-14.015-2.6-2.757-4.484-5.382-7.573-8.04-.7-.6-1.772-1.42-2.557-2.041a13.684,13.684,0,0,0-8.016-3.024,11.087,11.087,0,0,0-9.171,4.057c-3.962,4.969-2.693,12.564,2.828,16.965.056.044.116.079.172.123.759.615,1.688,1.4,2.385,1.918,3.279,2.421,6.273,3.66,9.54,5.582,6.882,4.25,12.588,7.774,17.113,12.023,1.767,1.883,2.076,5.2,2.311,6.638l3.688,3.295a148.906,148.906,0,0,0-23.481,103.81l-4.819,1.4c-1.27,1.64-3.065,4.221-4.942,4.991-5.921,1.865-12.585,2.55-20.629,3.393-3.777.314-7.036.127-11.04.885-.881.167-2.109.487-3.073.713-.034.007-.065.017-.1.025-.053.012-.122.038-.172.049-6.782,1.639-11.139,7.873-9.737,14.015s8.028,9.88,14.851,8.409c.049-.011.121-.013.172-.025.077-.018.145-.055.221-.074.951-.209,2.143-.441,2.975-.664,3.937-1.054,6.788-2.6,10.327-3.959,7.614-2.731,13.92-5.012,20.064-5.9,2.566-.2,5.269,1.583,6.614,2.336l5.016-.86a149.753,149.753,0,0,0,66.363,82.861l-2.09,5.016c.753,1.948,1.584,4.583,1.023,6.506-2.234,5.792-6.059,11.905-10.416,18.721-2.109,3.149-4.268,5.592-6.171,9.2-.456.862-1.036,2.187-1.475,3.1-2.957,6.328-.788,13.616,4.893,16.351,5.717,2.752,12.813-.151,15.884-6.491,0-.009.02-.016.025-.025s0-.018,0-.024c.437-.9,1.057-2.081,1.426-2.926,1.63-3.735,2.173-6.936,3.319-10.548,3.045-7.648,4.718-15.672,8.909-20.673,1.148-1.369,3.019-1.9,4.959-2.415l2.606-4.721a148.928,148.928,0,0,0,106.195.271c.733,1.3,2.094,3.8,2.459,4.426,1.971.641,4.123.972,5.876,3.565,3.136,5.357,5.28,11.7,7.893,19.351,1.147,3.612,1.713,6.813,3.344,10.548.372.851.988,2.049,1.426,2.951,3.065,6.361,10.183,9.274,15.908,6.516,5.68-2.736,7.852-10.024,4.893-16.351-.44-.911-1.044-2.235-1.5-3.1-1.9-3.6-4.062-6.023-6.172-9.171-4.357-6.815-7.97-12.477-10.2-18.269-.934-2.987.158-4.845.885-6.786a39.539,39.539,0,0,1-1.918-4.647A149.747,149.747,0,0,0,455.3,527.094c1.489.234,4.077.692,4.918.861,1.73-1.141,3.322-2.631,6.442-2.385,6.144.889,12.45,3.171,20.064,5.9,3.539,1.356,6.39,2.93,10.327,3.983.832.222,2.024.43,2.975.639.076.019.144.056.221.074.051.012.123.014.172.025,6.824,1.469,13.45-2.265,14.851-8.409s-2.954-12.378-9.737-14.015c-.987-.225-2.386-.606-3.344-.787-4-.758-7.263-.571-11.04-.885-8.045-.843-14.708-1.529-20.629-3.393-2.414-.937-4.132-3.809-4.967-4.991l-4.647-1.352a149.486,149.486,0,0,0-23.973-103.564c1.192-1.083,3.443-3.077,4.082-3.663.187-2.065.026-4.23,2.164-6.516,4.525-4.249,10.231-7.773,17.113-12.023,3.266-1.922,6.286-3.161,9.565-5.581.741-.547,1.754-1.414,2.532-2.041,5.52-4.4,6.791-12,2.828-16.966s-11.643-5.436-17.162-1.033c-.785.622-1.852,1.434-2.557,2.041-3.089,2.658-5,5.283-7.6,8.04-5.675,5.764-10.366,10.573-15.515,14.039-2.231,1.3-5.5.85-6.983.762l-4.377,3.122A150.811,150.811,0,0,0,325.5,332.825c-.1-1.533-.236-4.3-.27-5.139-1.5-1.433-3.307-2.657-3.762-5.753-.5-6.188.335-12.845,1.3-20.875.534-3.752,1.422-6.869,1.574-10.941.035-.926-.021-2.269-.025-3.27C324.32,279.785,319.168,274.059,312.813,274.06ZM298.4,363.314l-3.418,60.363-.246.123a10.145,10.145,0,0,1-16.105,7.77l-.1.049-49.5-35.087a118.54,118.54,0,0,1,57.093-31.1A121.37,121.37,0,0,1,298.4,363.314Zm28.842,0a119.536,119.536,0,0,1,68.944,33.243l-49.176,34.865-.172-.074a10.159,10.159,0,0,1-16.13-7.745l-.049-.025ZM211.093,419.079,256.286,459.5l-.049.246a10.14,10.14,0,0,1-3.983,17.433l-.049.2L194.275,494.1A118.515,118.515,0,0,1,211.093,419.079Zm203.12.025a120.715,120.715,0,0,1,17.334,74.8l-58.224-16.769-.049-.246a10.149,10.149,0,0,1-3.983-17.433l-.025-.123Zm-110.67,43.521h18.515l11.507,14.384-4.131,17.949-16.621,7.991-16.671-8.015-4.131-17.949ZM362.9,511.849a10.077,10.077,0,0,1,2.336.172l.1-.123,59.921,10.13a118.668,118.668,0,0,1-47.971,60.265l-23.26-56.183.074-.1a10.184,10.184,0,0,1,8.8-14.162Zm-100.638.246a10.146,10.146,0,0,1,9.171,14.138l.172.221L248.59,582.072a119.153,119.153,0,0,1-47.823-59.847l59.4-10.081.1.123A10.283,10.283,0,0,1,262.261,512.095Zm50.184,24.367a10.233,10.233,0,0,1,9.294,5.335h.221l29.284,52.913a121.383,121.383,0,0,1-11.7,3.27,118.993,118.993,0,0,1-64.937-3.344l29.21-52.815h.049A10.157,10.157,0,0,1,312.444,536.462Z" transform="translate(-36.321 -203.792)" fill="#fff" stroke="#fff" stroke-width="0.25"/>
    </g>
  </g>
</svg>
